<svg xmlns="http://www.w3.org/2000/svg" xmlns:xlink="http://www.w3.org/1999/xlink" id="Layer_1" x="0" y="0" version="1.1" viewBox="0 0 70 70" xml:space="preserve" style="enable-background:new 0 0 70 70"><style type="text/css">.st0{fill:#fff}</style><g><path d="M30.9,61.8c0,1.7,1.3,3,3,3h27.4c1.7,0,3-1.3,3-3V33.7c0-1.7-1.3-3-3-3H33.9c-1.7,0-3,1.3-3,3 C30.9,33.7,30.9,61.8,30.9,61.8z" class="st0"/><path d="M28.2,31.1c0-1.7,1.3-3,3-3h20.6V21c0-1.7-1.3-3-3-3H21.4c-1.7,0-3,1.3-3,3v28.1c0,1.7,1.3,3,3,3h6.9 L28.2,31.1L28.2,31.1z" class="st0"/><path d="M15.9,18.4c0-1.7,1.3-3,3-3h20.6V8.3c0-1.7-1.3-3-3-3H9c-1.7,0-3,1.3-3,3v28.1c0,1.7,1.3,3,3,3h6.9V18.4z" class="st0"/></g></svg>