<svg xmlns="http://www.w3.org/2000/svg" xmlns:xlink="http://www.w3.org/1999/xlink" id="Layer_1" x="0" y="0" version="1.1" viewBox="0 0 512 512" xml:space="preserve" style="enable-background:new 0 0 512 512"><style type="text/css">.st0{fill:#fff}</style><g><path d="M465,141.1h-93l-20.4-52.8c-2.1-6.3-8.4-9.9-14.6-9.9H175c-6.3,0-12.5,4.2-14.6,9.9L140,141.1H47 c-14.6,0-26.1,11.5-26.1,26.1v261.2c0,14.6,11.5,26.1,26.1,26.1h418c14.6,0,26.1-11.5,26.1-26.1V167.2 C491.1,152.6,479.6,141.1,465,141.1z M459.8,423.2H52.2V172.4H151c6.3,0,12.5-4.2,14.6-9.9l20.4-52.8h140.5l20.4,52.8 c2.1,6.3,8.4,9.9,14.6,9.9h98.2V423.2z" class="st0"/><path d="M256,175c-60.6,0-110.2,49.6-110.2,110.2S195.4,395.5,256,395.5s110.2-49.6,110.2-110.2S316.6,175,256,175z M256,364.1c-43.4,0-78.9-35.5-78.9-78.9s35.5-78.9,78.9-78.9s78.9,35.5,78.9,78.9C334.9,328.6,299.4,364.1,256,364.1z" class="st0"/></g></svg>